# xmcd
#
# Track frame offsets: 
#        150
#        28742
#        42010
#        54412
#        57995
#        71487
#        83815
#        93388
#        115203
#        141172
#        164998
#        194479
#        199726
#        215926
#        235841
#        257273
#        267025
#        278425
#        290320
#
# Disc length: 4225 seconds
#
# Revision: 4
# Processed by: cddbd v1.5.2PL0 Copyright (c) Steve Scherf et al.
# Submitted via: ExactAudioCopyFreeDBPlugin 1.0
#
DISCID=1a107f13
DTITLE=Аквариум - Беспечный русский бродяга
DYEAR=2006
DGENRE=Rock
TTITLE0=Афанасий Никитин буги
TTITLE1=Шумелка
TTITLE2=О смысле всего сущего
TTITLE3=Духовные люди
TTITLE4=Мама я не могу больше пить
TTITLE5=Voulez vous coucher Avec Moi?
TTITLE6=Стаканы
TTITLE7=Беспечный русский бродяга
TTITLE8=Голова Альфредо Гарсии
TTITLE9=День в доме дождя
TTITLE10=Ткачиха
TTITLE11=Гимн анахорету
TTITLE12=Дело за мной
TTITLE13=Многоточие
TTITLE14=Скорбец
TTITLE15=Достоевский
TTITLE16=Неизвестные факты из биографии Элвиса Пресли
TTITLE17=Интерлюдия
TTITLE18=Терапевт
EXTD=
EXTT0=
EXTT1=
EXTT2=
EXTT3=
EXTT4=
EXTT5=
EXTT6=
EXTT7=
EXTT8=
EXTT9=
EXTT10=
EXTT11=
EXTT12=
EXTT13=
EXTT14=
EXTT15=
EXTT16=
EXTT17=
EXTT18=
PLAYORDER=
